<?xml version="1.0" encoding="UTF-8"?><svg id="Ebene_1" xmlns="http://www.w3.org/2000/svg" viewBox="0 0 413.35 90.16"><path d="m396.41,61.38l-10.13-16.29h-8.68v16.29h-15.63V10.72h36.04c9.19,0,13.17,3.84,13.17,13.17v6.88c0,7.89-2.82,11.8-9.19,12.88l11.36,17.73h-16.94Zm-18.82-27.43h14.04c2.97,0,3.91-.94,3.91-3.91v-3.91c0-2.97-.94-3.91-3.91-3.91h-14.04v11.72Z" style="fill:#3d4543; stroke-width:0px;"/><path d="m164.58,53.5h-20.77l-2.82,7.89h-16.5l21.28-50.66h17.73l21.21,50.66h-17.3l-2.82-7.89Zm-3.91-10.78l-6.44-17.95-6.51,17.95h12.96Z" style="fill:#3d4543; stroke-width:0px;"/><path d="m187.28,46.76V10.72h15.64v32.79c0,3.47,1.16,4.63,4.63,4.63h10.13c3.47,0,4.63-1.16,4.63-4.63V10.72h15.63v36.04c0,10.06-4.7,14.62-14.62,14.62h-21.42c-9.92,0-14.62-4.56-14.62-14.62Z" style="fill:#3d4543; stroke-width:0px;"/><path d="m352.89,49.01v12.38h-44.44V10.72h43.72v12.38h-28.08v7.09h25.19v10.71h-25.19v8.11h28.81Z" style="fill:#3d4543; stroke-width:0px;"/><path d="m114.35,10.72h-36.04v12.09h29.67c2.97,0,3.91.94,3.91,3.91v4.78c0,2.97-.94,3.91-3.91,3.91h-29.67v25.98h15.63v-14.47h20.41c9.19,0,13.17-3.84,13.17-13.17v-9.84c0-9.34-3.98-13.17-13.17-13.17Z" style="fill:#3d4543; stroke-width:0px;"/><path d="m271.95,33.3v9.78h11.29v1.95c0,3.4-1.16,4.63-4.63,4.63h-12.88c-3.47,0-4.63-1.23-4.63-4.63v-17.08c0-3.47,1.16-4.63,4.63-4.63h12.3c3.48,0,4.63,1.16,4.63,4.63v.66h15.64v-3.26c0-10.06-4.7-14.62-14.62-14.62h-23.59c-9.91,0-14.62,4.56-14.62,14.62v21.42c0,10.06,4.7,14.62,14.62,14.62h23.59c9.92,0,14.62-4.56,14.62-14.62v-13.47h-26.35Z" style="fill:#3d4543; stroke-width:0px;"/><polygon points="15.42 27.04 0 35.94 0 81.01 15.85 90.16 15.85 45.09 31.27 36.19 15.42 27.04" style="fill:#61a60e; stroke-width:0px;"/><polygon points="31.52 0 15.67 9.15 46.83 27.21 46.83 45.24 31.46 54.11 31.46 72.15 62.45 54.25 62.45 17.86 31.52 0" style="fill:#61a60e; stroke-width:0px;"/></svg>
