<?xml version="1.0" encoding="utf-8"?>
<!-- Generator: Adobe Illustrator 26.0.1, SVG Export Plug-In . SVG Version: 6.00 Build 0)  -->
<svg version="1.1" id="Ebene_1" xmlns="http://www.w3.org/2000/svg" xmlns:xlink="http://www.w3.org/1999/xlink" x="0px" y="0px"
	 viewBox="0 0 189.9 39.9" width="190px" heigth="40px" style="enable-background:new 0 0 189.9 39.9;" xml:space="preserve">
<style type="text/css">
	.st0{fill:#004545;}
</style>
<path class="st0" d="M31.9,29.1c-3.3-3-5.3-4.7-7.2-5.3c-2.5-0.7-4.9,0.5-5.4,2.7c-0.6,2.2,0.9,4.4,3.3,5.1c2,0.5,4.6-0.1,8.9-0.9
	c0.6-0.1,0.9-0.3,0.9-0.6C32.4,29.8,32.3,29.5,31.9,29.1z M21.5,20.1c1.9,1.3,4.6,0.9,6.5-0.9c1.7-1.7,2.6-4.7,4.3-9.6
	c0.2-0.6,0.1-1.1-0.1-1.3c-0.2-0.2-0.6-0.3-1.3-0.1c-4.9,1.5-7.9,2.6-9.6,4.3c-1.9,1.9-2.2,4.5-1,6.4c-3.5,3.1-6.6,7.1-8.4,12
	c-0.2,0.6,1.5,1.1,1.7,0.6C14.9,27.1,18,23.2,21.5,20.1z M14,21.3c2.2-0.6,3.4-3,2.7-5.4c-0.5-2-2.4-3.9-5.2-7.2
	c-0.4-0.4-0.7-0.6-1-0.5C10.2,8.2,10,8.4,9.8,9c-1,4.3-1.5,6.9-0.9,8.9C9.5,20.4,11.8,21.9,14,21.3L14,21.3z M34.9,34.2
	c-2.7,2.7-7.1,3.6-14.4,3.5c-7.2,0-11.7-0.9-14.3-3.5c-2.6-2.7-3.5-7.1-3.5-14.3S3.6,8.3,6.2,5.7C8.9,3,13.3,2.1,20.5,2.1
	c7.2,0,11.7,0.9,14.4,3.5c2.6,2.7,3.5,7.1,3.5,14.3S37.5,31.6,34.9,34.2L34.9,34.2z M36.2,4.3c-3-3-7.9-4.1-15.6-4.1
	S7.9,1.3,4.9,4.3s-4,7.9-4,15.6s1.1,12.6,4,15.6c3,3,7.9,4,15.6,4.1c7.7,0,12.6-1.1,15.6-4.1c3-3,4-7.9,4-15.6S39.2,7.3,36.2,4.3
	L36.2,4.3z"/>
<path class="st0" d="M161.8,15c2,0,3.6,1.3,4.1,3.2h5.5c-0.6-4.9-4.6-8.5-9.6-8.5c-5.5,0-9.7,4.2-9.7,9.7s4.2,9.7,9.7,9.7
	c5,0,9-3.6,9.6-8.5h-5.5c-0.5,1.9-2.1,3.2-4.1,3.2c-2.4,0-4.2-2-4.2-4.5S159.4,15,161.8,15 M56.7,17.5v-2.7h6.9V10H51.3v18.8h5.4v-7
	H62v-4.3H56.7z M59.7,33.2h5l2.8-7.3h7l1.1,3h5.5L73.8,10h-5L59.7,33.2z M97.5,16.6c0-3.7-3-6.6-6.8-6.6h-8.2v18.8h5.4v-6l4.6,6H99
	l-5.2-6.4C96.1,21.4,97.5,19.1,97.5,16.6 M105.4,10h-4.9v18.8h5.3v-9.6l4.6,6.6l4.6-6.5v9.5h5.4V10h-4.9l-5.1,7.3L105.4,10z
	 M126.7,15.2v13.6h5.4V15.2h4.6V10h-14.5v5.1H126.7z M150.8,28.8v-4.7h-7.2v-2.5h5.6v-4.3h-5.6v-2.5h7.2V10h-12.5v18.8H150.8z
	 M184.5,16.9h-5.8V10h-5.4v18.8h5.4v-6.7h5.8v6.7h5.4V10.1h-5.4V16.9z M87.9,14.6h1.9c1.3,0,2.3,1,2.4,2.2c0,0,0,0,0,0.1
	c0,1.3-1,2.3-2.4,2.3h-1.9V14.6z M71.2,16.3l1.8,4.9h-3.6L71.2,16.3z"/>
</svg>
